<svg width="512" height="512" viewBox="0 0 512 512" fill="none" xmlns="http://www.w3.org/2000/svg">
<rect width="512" height="512" fill="#8BD8ED"/>
<path
    transform="scale(3.5,3.5)"
    d="m 86.832554,89.41322 -0.150478,0.150477 q -6.395233,6.696186 -13.392373,10.157139 -6.997139,3.460944 -14.144753,3.460944 -6.771427,0 -12.263804,-3.536187 -5.492378,-3.536186 -8.577141,-9.856181 -3.009521,-6.319995 -3.009521,-14.445704 0,-8.050474 2.407617,-16.477132 2.482857,-8.501904 7.147615,-17.079037 4.739999,-8.577142 11.436186,-16.627616 9.103805,-10.984756 19.486659,-17.4552283 10.458088,-6.5457094 18.659038,-6.5457094 3.460951,0 6.169521,1.4295262 2.78381,1.3542802 4.21333,4.0628485 1.42953,2.6333377 1.42953,6.169526 0,9.254278 -7.824762,17.906658 -7.824761,8.577133 -19.486658,12.188561 l -2.482857,-5.71809 q 11.51142,-3.611427 19.11047,-10.984757 7.599037,-7.37333 7.599037,-14.821898 0,-2.1066623 -1.2038,-4.0628559 -1.20382,-1.9561862 -3.235239,-2.9342831 -2.031433,-0.9780969 -4.664763,-0.9780969 -7.072379,0 -15.649516,5.3419066 -8.577141,5.3418973 -15.950469,14.1447543 -5.642856,6.771424 -9.931424,14.972374 -4.288569,8.200943 -6.620948,16.928562 -2.332382,8.727609 -2.332382,16.477131 0,6.019038 1.354288,11.059991 1.354284,4.965715 4.138091,8.727618 2.783808,3.686665 6.62095,5.567613 3.837141,1.880959 8.351424,1.880959 10.759043,0 23.248559,-12.414286 l 0.300953,-0.376192 2.708571,-12.865701 7.82476,-4.439047 -4.664763,22.496178 q -1.655237,8.200949 -2.859045,11.812365 -1.128571,3.68667 -3.385713,7.82477 -3.611427,6.62095 -9.32952,11.58666 -5.642853,5.04094 -12.865707,7.74951 -7.147615,2.70857 -14.445708,2.70857 -8.577137,0 -14.219993,-2.63332 l 2.40762,-5.34191 q 8.200947,4.66476 17.079036,4.66476 4.439047,0 8.351425,-1.20381 3.91238,-1.12857 7.147616,-3.38571 3.310475,-2.25714 5.642856,-5.41714 2.031427,-2.78381 3.385712,-5.64286 1.354285,-2.85904 2.558093,-7.14761 1.203811,-4.21333 2.70857,-11.285713 z" fill="black"/>
</svg>


